<svg xmlns="http://www.w3.org/2000/svg" xmlns:xlink="http://www.w3.org/1999/xlink" xmlns:lucid="lucid" width="983" height="620"><g transform="translate(-597 -160)" lucid:page-tab-id="0_0"><path d="M680 206c0-3.3 2.7-6 6-6h848c3.3 0 6 2.7 6 6v528c0 3.3-2.7 6-6 6H686c-3.3 0-6-2.7-6-6z" stroke="#5e5e5e" stroke-width="3" fill="#fff"/><path d="M769.58 542.67c-1.4.14-2.52.42-3.64.98l-48.58 23.94c-2.66 1.25-4.48 3.5-5.04 6.43l-12.04 53.9c-.56 2.52-.14 5.04 1.26 7.28.14.3.28.43.56.7l33.6 43.13c1.82 2.38 4.34 3.64 7.28 3.64h54.04c2.94 0 5.46-1.26 7.28-3.64l33.6-43.12c1.82-2.37 2.52-5.17 1.82-8.1l-12.04-53.77c-.56-2.94-2.38-5.18-5.04-6.44l-48.58-23.95c-1.54-.7-2.94-1.12-4.48-.98z" stroke="#fff" stroke-width="0" fill="#326ce5"/><path d="M770 561c-1.64 0-2.87 1.45-2.87 3.3v.94c0 1.03.2 1.86.3 2.8.3 2.06.52 3.8.42 5.47-.2.63-.62 1.14-1.03 1.56v1.24c-1.74.2-3.5.4-5.34.82-7.5 1.76-14.05 5.8-18.98 11.26-.3-.2-.92-.62-1.02-.82-.52.1-1.03.3-1.75-.1-1.33-.94-2.46-2.17-3.9-3.72-.72-.73-1.13-1.35-1.95-2.07-.2-.2-.4-.4-.6-.52-.63-.5-1.35-.82-2.07-.82-.9 0-1.73.3-2.34 1.03-1.03 1.34-.62 3.3.7 4.44l.12.1c.1.1.4.3.5.42.93.62 1.65 1.03 2.47 1.44 1.75 1.14 3.18 2.07 4.3 3.2.52.52.52 1.35.63 1.76l.92.83c-5.03 7.75-7.3 17.36-5.95 27.07l-1.23.42c-.3.4-.72 1.03-1.23 1.24-1.55.5-3.2.72-5.25.93-.92.1-1.74 0-2.77.2-.2 0-.5.12-.82.22-1.74.4-2.87 2.07-2.46 3.62.3 1.65 1.95 2.58 3.7 2.27 0 0 .1 0 .1-.1.3 0 .6-.1.82-.1.92-.3 1.64-.72 2.56-1.03 1.95-.72 3.5-1.34 5.13-1.55.63-.1 1.35.4 1.65.62l1.24-.3c2.96 9.4 9 16.94 16.8 21.7l-.5 1.23c.2.52.4 1.24.2 1.76-.5 1.44-1.53 3.1-2.56 4.85-.62.83-1.13 1.45-1.64 2.38-.1.2-.2.62-.3.83-.83 1.64-.2 3.5 1.22 4.22 1.44.73 3.18 0 4-1.65.1-.2.3-.52.4-.83.42-.93.53-1.75.83-2.68.72-1.97 1.13-4.14 2.26-5.38.32-.4.73-.5 1.24-.62l.62-1.24c6.77 2.7 14.36 3.3 21.96 1.55 1.64-.4 3.38-.93 4.92-1.55.2.42.62 1.04.62 1.14.5.2 1.13.3 1.54.93.82 1.44 1.33 3.1 1.95 5.05.3.93.5 1.86.92 2.8.1.2.2.5.3.72.83 1.65 2.57 2.48 4 1.75 1.45-.72 2.06-2.58 1.24-4.23-.1-.32-.2-.63-.3-.84-.5-.93-1.02-1.55-1.54-2.38-1.13-1.86-2.05-3.3-2.66-4.85-.2-.73.1-1.24.3-1.76-.2-.1-.4-.83-.5-1.14 8-4.96 13.94-12.8 16.7-21.8.43 0 1.04.2 1.35.2.4-.3.82-.72 1.54-.6 1.63.2 3.17.8 5.12 1.54.92.3 1.64.72 2.56 1.03.2.1.52.1.82.2h.1c1.75.42 3.4-.6 3.7-2.16.4-1.66-.72-3.3-2.46-3.72-.2 0-.62-.1-.82-.2-1.03-.22-1.85-.1-2.77-.22-2.06-.2-3.7-.4-5.24-.93-.6-.2-1-.93-1.22-1.24l-1.23-.4c.62-4.56.5-9.2-.6-13.96-1.04-4.75-2.9-9.2-5.45-13.02.3-.3.92-.83 1.02-.93.1-.62 0-1.14.62-1.76 1.13-1.03 2.56-1.96 4.3-3.1.83-.5 1.55-.82 2.37-1.44.2-.2.52-.42.73-.52 1.33-1.13 1.64-3.2.72-4.44-1.03-1.34-2.98-1.45-4.42-.3-.2.2-.4.4-.6.5-.83.73-1.24 1.45-1.96 2.18-1.44 1.44-2.57 2.68-3.9 3.6-.62.32-1.44.22-1.75.22l-1.12.82c-6.37-6.8-14.88-11.15-24.22-12.08v-1.35c-.4-.3-.92-.62-1.03-1.44-.1-1.65.1-3.4.42-5.47.1-.93.3-1.76.3-2.8v-.92c0-1.85-1.23-3.3-2.87-3.3zm-3.7 23.25l-.8 15.8h-.12c0 1.46-1.13 2.6-2.56 2.6-.52 0-1.03-.2-1.44-.52h-.1l-12.52-9.2c3.9-3.93 8.82-6.72 14.47-8.06 1.02-.3 2.05-.4 3.08-.62zm7.4 0c6.56.83 12.72 3.93 17.44 8.68l-12.52 9.1c-1.13.82-2.67.6-3.5-.52-.4-.4-.6-.92-.6-1.44zm-29.45 14.57l11.5 10.54-.1.1c1 .93 1.22 2.48.4 3.62-.4.52-.83.72-1.34.93h-.1l-14.56 4.45c-.82-7.02.82-13.95 4.2-19.63zm51.4 0c1.75 2.9 2.98 6 3.8 9.5.72 3.42.92 6.72.6 10.03L785.3 614v-.1c-1.35-.3-2.17-1.75-1.86-3.1.2-.6.4-1.03.82-1.44l11.4-10.54zm-28 11.37h4.7l2.88 3.7-1.02 4.76-4.2 2.07-4.2-2.07-1.03-4.75zM782.7 623c.1 0 .3 0 .52.1h.1l15.08 2.6c-2.15 6.4-6.46 11.97-12.1 15.7l-5.85-14.68c-.52-1.24 0-2.8 1.23-3.4.3-.22.6-.22 1.02-.32zm-25.55.1c1.24 0 2.26.83 2.47 2.07.2.52.1 1.14-.1 1.65l-5.75 14.57c-5.55-3.62-9.86-9-12.12-15.6l14.98-2.7h.5zm12.73 6.4c.4-.1.82 0 1.23.22.5.3.92.62 1.13 1.13h.1l7.4 13.85c-1.04.3-1.96.62-3 .83-5.63 1.34-11.27.93-16.4-.93l7.38-13.75c.4-.82 1.23-1.34 2.16-1.34z" stroke="#fff" stroke-width=".05" fill="#fff"/><use xlink:href="#a" transform="matrix(1,0,0,1,670,691.6666666666666) translate(43.24074074074074 17.77777777777778)"/><path d="M680 366c0-3.3 2.7-6 6-6h148c3.3 0 6 2.7 6 6v108c0 3.3-2.7 6-6 6H686c-3.3 0-6-2.7-6-6z" stroke="#5e5e5e" stroke-width="3" fill="#fff"/><use xlink:href="#b" transform="matrix(1,0,0,1,692,372) translate(-4.654320987654316 52.44444444444444)"/><path d="M980 226c0-3.3 2.7-6 6-6h228c3.3 0 6 2.7 6 6v108c0 3.3-2.7 6-6 6H986c-3.3 0-6-2.7-6-6z" stroke="#5e5e5e" stroke-width="3" fill="#fff"/><use xlink:href="#c" transform="matrix(1,0,0,1,992,232) translate(31.67283950617285 26.87152777777778)"/><use xlink:href="#d" transform="matrix(1,0,0,1,992,232) translate(5.098765432098787 53.53819444444445)"/><use xlink:href="#e" transform="matrix(1,0,0,1,992,232) translate(71.64197530864199 53.53819444444445)"/><use xlink:href="#f" transform="matrix(1,0,0,1,992,232) translate(139.41975308641975 53.53819444444445)"/><use xlink:href="#g" transform="matrix(1,0,0,1,992,232) translate(20.530864197530875 80.20486111111111)"/><path d="M980 366c0-3.3 2.7-6 6-6h228c3.3 0 6 2.7 6 6v100.67c0 3.3-2.7 6-6 6H986c-3.3 0-6-2.7-6-6z" stroke="#5e5e5e" stroke-width="3" fill="#fff"/><use xlink:href="#h" transform="matrix(1,0,0,1,992,372) translate(48.86419753086418 23.34027777777778)"/><use xlink:href="#i" transform="matrix(1,0,0,1,992,372) translate(29.790123456790113 50.00694444444445)"/><use xlink:href="#j" transform="matrix(1,0,0,1,992,372) translate(160.34567901234567 50.00694444444445)"/><use xlink:href="#k" transform="matrix(1,0,0,1,992,372) translate(5.129629629629619 76.67361111111111)"/><use xlink:href="#l" transform="matrix(1,0,0,1,992,372) translate(87.6604938271605 76.67361111111111)"/><use xlink:href="#m" transform="matrix(1,0,0,1,992,372) translate(133.21604938271605 76.67361111111111)"/><path d="M980 498.67c0-3.32 2.7-6 6-6h228c3.3 0 6 2.68 6 6v100.66c0 3.32-2.7 6-6 6H986c-3.3 0-6-2.68-6-6z" stroke="#5e5e5e" stroke-width="3" fill="#fff"/><use xlink:href="#n" transform="matrix(1,0,0,1,992,504.66666666666663) translate(63.61728395061728 23.34027777777778)"/><use xlink:href="#i" transform="matrix(1,0,0,1,992,504.66666666666663) translate(29.790123456790113 50.00694444444445)"/><use xlink:href="#j" transform="matrix(1,0,0,1,992,504.66666666666663) translate(160.34567901234567 50.00694444444445)"/><use xlink:href="#k" transform="matrix(1,0,0,1,992,504.66666666666663) translate(18.03086419753086 76.67361111111111)"/><use xlink:href="#l" transform="matrix(1,0,0,1,992,504.66666666666663) translate(100.56172839506173 76.67361111111111)"/><use xlink:href="#o" transform="matrix(1,0,0,1,992,504.66666666666663) translate(146.1172839506173 76.67361111111111)"/><path d="M1280 486c0-3.3 2.7-6 6-6h208c3.3 0 6 2.7 6 6v160.67c0 3.3-2.7 6-6 6h-208c-3.3 0-6-2.7-6-6z" stroke="#5e5e5e" stroke-width="3" fill="#fff"/><use xlink:href="#p" transform="matrix(1,0,0,1,1292,492) translate(26.4567901234568 78.30902777777777)"/><path d="M1508.3 580v3.94c0 1.8-5 4.77-14.4 6.47-5.28.94-10.56 1.38-15.9 1.37-19.6 0-30.4-5.15-30.4-7.8V580c0 2.64 10.68 7.8 30.4 7.8 5.65.03 10.38-.36 15.96-1.32 9.35-1.77 14.33-4.68 14.33-6.48z" fill="#4f4f4f"/><path d="M1516 611.23v3.47c-.53 21.45-18 38.37-39 37.8-20.28-.6-36.47-17.1-37-37.8v-3.47h76z" fill-opacity="0"/><path d="M1508.04 580.73v4c-1.04 1.74-5.9 4.2-14.16 5.66-5.22.94-10.57 1.37-15.9 1.37-19.63 0-30.38-5.16-30.38-7.77v-4c0 2.62 10.7 7.78 30.37 7.78 5.65.07 10.45-.37 15.97-1.3 8.33-1.46 13.12-3.93 14.22-5.75m.06 58.5c.06-.16.12-.3.12-.52v6.62l-.06.3c-.06.06-.12.2-.18.35v.08l-.2.2-.23.38-.24.3-.43.28-.36.3-.43.36-.47.22-.6.36-.5.3-.85.36-.48.22-1.52.58-.55.14-1.2.37-.8.22-1.16.3-.9.2-1.28.3-1.04.15-1.4.3-1.16.13-1.58.15-1.15.15-1.88.14-1.23.15-2.12.06h-4.56c-11.06 0-19.38-1.38-24.9-3.2-4.02-1.45-6.94-3.05-7.24-4.2v-6.33c.3 1.16 2.86 2.6 6.44 4l-.06-.37c8.74 2.76 16.52 3.92 25.7 3.92h4.55l2.17-.07 1.16-.06 1.82-.22 1.15-.07 1.64-.22 1.04-.15 1.5-.2 6.94-1.76c.55-.22 1.1-.36 1.58-.58l1.33-.58.3-.22.86-.43.3-.2.6-.38.24-.2.5-.45.17-.14.37-.44v-.3l.25-.58z" fill="#4f4f4f"/><path d="M1478 572.67c5.34-.05 10.68.4 15.96 1.32 9.35 1.7 14.33 4.64 14.33 6.48 0 1.85-5 4.72-14.4 6.43-5.28.9-10.56 1.37-15.9 1.33-19.6 0-30.4-5.15-30.4-7.78 0-2.65 10.74-7.78 30.4-7.78z" fill="#7d7c7c"/><path d="M1493.5 593.2c-.84.18-1.63.24-2.48.42-.42 0-.85.13-1.34.2l-2.3.23c-.55 0-1.1.13-1.58.13l-3.04.18h-.55c-1.2 0-2.42.06-3.7.12h-.78c-12.03 0-24.18-2.14-30.07-6.2v53.53c.3 1.23 3.22 2.83 7.23 4.24 5.4 1.78 13.8 3.2 24.84 3.2 20.23.05 28.67-4.98 28.67-7.68v-53.64c-3.17 2.2-8.27 4.1-14.9 5.27z" fill="#7d7c7c"/><path d="M980 626c0-3.3 2.7-6 6-6h228c3.3 0 6 2.7 6 6v80.67c0 3.3-2.7 6-6 6H986c-3.3 0-6-2.7-6-6z" stroke="#5e5e5e" stroke-width="3" fill="#fff"/><use xlink:href="#q" transform="matrix(1,0,0,1,992,632) translate(61.796296296296305 17.77777777777778)"/><use xlink:href="#r" transform="matrix(1,0,0,1,992,632) translate(148.03086419753086 17.77777777777778)"/><use xlink:href="#s" transform="matrix(1,0,0,1,992,632) translate(44.57407407407406 44.44444444444444)"/><use xlink:href="#t" transform="matrix(1,0,0,1,992,632) translate(72.29012345679013 71.11111111111111)"/><path d="M521 420h139M521.03 420H520" stroke="#b2b2b2" stroke-width="2" fill="none"/><path d="M675.26 420L661 424.64v-9.28z" stroke="#b2b2b2" stroke-width="2" fill="#b2b2b2"/><path d="M842.5 420H960" stroke="#b2b2b2" stroke-width="2" fill="none"/><path d="M842.53 421h-1.03v-2h1.03z" fill="#b2b2b2"/><path d="M975.26 420L961 424.64v-9.28z" stroke="#b2b2b2" stroke-width="2" fill="#b2b2b2"/><path d="M842.5 382.67H904c3.3 0 6-2.7 6-6V289c0-3.3 2.7-6 6-6h44" stroke="#b2b2b2" stroke-width="2" fill="none"/><path d="M842.53 383.67h-1.03v-2h1.03z" fill="#b2b2b2"/><path d="M975.26 283L961 287.64v-9.28z" stroke="#b2b2b2" stroke-width="2" fill="#b2b2b2"/><path d="M842.5 448H904c3.3 0 6 2.7 6 6v97c0 3.3 2.7 6 6 6h44" stroke="#b2b2b2" stroke-width="2" fill="none"/><path d="M842.53 449h-1.03v-2h1.03z" fill="#b2b2b2"/><path d="M975.26 557L961 561.64v-9.28z" stroke="#b2b2b2" stroke-width="2" fill="#b2b2b2"/><path d="M842.5 470.67H874c3.3 0 6 2.68 6 6v183.66c0 3.32 2.7 6 6 6h74" stroke="#b2b2b2" stroke-width="2" fill="none"/><path d="M842.53 471.67h-1.03v-2h1.03z" fill="#b2b2b2"/><path d="M975.26 666.33L961 670.97v-9.27z" stroke="#b2b2b2" stroke-width="2" fill="#b2b2b2"/><path d="M1222.5 549h37.5" stroke="#b2b2b2" stroke-width="2" fill="none"/><path d="M1222.53 550h-1.03v-2h1.03z" fill="#b2b2b2"/><path d="M1275.26 549l-14.26 4.64v-9.28z" stroke="#b2b2b2" stroke-width="2" fill="#b2b2b2"/><path d="M1222.5 416.33H1384c3.3 0 6 2.7 6 6V460" stroke="#b2b2b2" stroke-width="2" fill="none"/><path d="M1222.53 417.33h-1.03v-2h1.03z" fill="#b2b2b2"/><path d="M1390 475.26l-4.64-14.26h9.28z" stroke="#b2b2b2" stroke-width="2" fill="#b2b2b2"/><defs><path fill="#333" d="M194 0L95-120 63-95V0H30v-248h33v124l119-124h40L117-140 236 0h-42" id="u"/><path fill="#333" d="M84 4C-5 8 30-112 23-190h32v120c0 31 7 50 39 49 72-2 45-101 50-169h31l1 190h-30c-1-10 1-25-2-33-11 22-28 36-60 37" id="v"/><path fill="#333" d="M115-194c53 0 69 39 70 98 0 66-23 100-70 100C84 3 66-7 56-30L54 0H23l1-261h32v101c10-23 28-34 59-34zm-8 174c40 0 45-34 45-75 0-40-5-75-45-74-42 0-51 32-51 76 0 43 10 73 51 73" id="w"/><path fill="#333" d="M100-194c63 0 86 42 84 106H49c0 40 14 67 53 68 26 1 43-12 49-29l28 8c-11 28-37 45-77 45C44 4 14-33 15-96c1-61 26-98 85-98zm52 81c6-60-76-77-97-28-3 7-6 17-6 28h103" id="x"/><path fill="#333" d="M114-163C36-179 61-72 57 0H25l-1-190h30c1 12-1 29 2 39 6-27 23-49 58-41v29" id="y"/><path fill="#333" d="M117-194c89-4 53 116 60 194h-32v-121c0-31-8-49-39-48C34-167 62-67 57 0H25l-1-190h30c1 10-1 24 2 32 11-22 29-35 61-36" id="z"/><path fill="#333" d="M59-47c-2 24 18 29 38 22v24C64 9 27 4 27-40v-127H5v-23h24l9-43h21v43h35v23H59v120" id="A"/><path fill="#333" d="M135-143c-3-34-86-38-87 0 15 53 115 12 119 90S17 21 10-45l28-5c4 36 97 45 98 0-10-56-113-15-118-90-4-57 82-63 122-42 12 7 21 19 24 35" id="B"/><g id="a"><use transform="matrix(0.06172839506172839,0,0,0.06172839506172839,0,0)" xlink:href="#u"/><use transform="matrix(0.06172839506172839,0,0,0.06172839506172839,14.814814814814813,0)" xlink:href="#v"/><use transform="matrix(0.06172839506172839,0,0,0.06172839506172839,27.160493827160494,0)" xlink:href="#w"/><use transform="matrix(0.06172839506172839,0,0,0.06172839506172839,39.50617283950617,0)" xlink:href="#x"/><use transform="matrix(0.06172839506172839,0,0,0.06172839506172839,51.85185185185185,0)" xlink:href="#y"/><use transform="matrix(0.06172839506172839,0,0,0.06172839506172839,59.197530864197525,0)" xlink:href="#z"/><use transform="matrix(0.06172839506172839,0,0,0.06172839506172839,71.5432098765432,0)" xlink:href="#x"/><use transform="matrix(0.06172839506172839,0,0,0.06172839506172839,83.88888888888889,0)" xlink:href="#A"/><use transform="matrix(0.06172839506172839,0,0,0.06172839506172839,90.06172839506172,0)" xlink:href="#x"/><use transform="matrix(0.06172839506172839,0,0,0.06172839506172839,102.4074074074074,0)" xlink:href="#B"/></g><path fill="#333" d="M24 0v-248h52V0H24" id="C"/><path fill="#333" d="M135-194c87-1 58 113 63 194h-50c-7-57 23-157-34-157-59 0-34 97-39 157H25l-1-190h47c2 12-1 28 3 38 12-26 28-41 61-42" id="D"/><path fill="#333" d="M195-6C206 82 75 100 31 46c-4-6-6-13-8-21l49-6c3 16 16 24 34 25 40 0 42-37 40-79-11 22-30 35-61 35-53 0-70-43-70-97 0-56 18-96 73-97 30 0 46 14 59 34l2-30h47zm-90-29c32 0 41-27 41-63 0-35-9-62-40-62-32 0-39 29-40 63 0 36 9 62 39 62" id="E"/><path fill="#333" d="M135-150c-39-12-60 13-60 57V0H25l-1-190h47c2 13-1 29 3 40 6-28 27-53 61-41v41" id="F"/><path fill="#333" d="M185-48c-13 30-37 53-82 52C43 2 14-33 14-96s30-98 90-98c62 0 83 45 84 108H66c0 31 8 55 39 56 18 0 30-7 34-22zm-45-69c5-46-57-63-70-21-2 6-4 13-4 21h74" id="G"/><path fill="#333" d="M137-138c1-29-70-34-71-4 15 46 118 7 119 86 1 83-164 76-172 9l43-7c4 19 20 25 44 25 33 8 57-30 24-41C81-84 22-81 20-136c-2-80 154-74 161-7" id="H"/><path fill="#333" d="M14-72v-43h91v43H14" id="I"/><path fill="#333" d="M25-224v-37h50v37H25zM25 0v-190h50V0H25" id="J"/><path fill="#333" d="M144 0l-44-69L55 0H2l70-98-66-92h53l41 62 40-62h54l-67 91 71 99h-54" id="K"/><g id="b"><use transform="matrix(0.06172839506172839,0,0,0.06172839506172839,0,0)" xlink:href="#C"/><use transform="matrix(0.06172839506172839,0,0,0.06172839506172839,6.172839506172839,0)" xlink:href="#D"/><use transform="matrix(0.06172839506172839,0,0,0.06172839506172839,19.691358024691358,0)" xlink:href="#E"/><use transform="matrix(0.06172839506172839,0,0,0.06172839506172839,33.20987654320987,0)" xlink:href="#F"/><use transform="matrix(0.06172839506172839,0,0,0.06172839506172839,41.85185185185185,0)" xlink:href="#G"/><use transform="matrix(0.06172839506172839,0,0,0.06172839506172839,54.197530864197525,0)" xlink:href="#H"/><use transform="matrix(0.06172839506172839,0,0,0.06172839506172839,66.5432098765432,0)" xlink:href="#H"/><use transform="matrix(0.06172839506172839,0,0,0.06172839506172839,78.88888888888889,0)" xlink:href="#I"/><use transform="matrix(0.06172839506172839,0,0,0.06172839506172839,86.23456790123457,0)" xlink:href="#D"/><use transform="matrix(0.06172839506172839,0,0,0.06172839506172839,99.75308641975309,0)" xlink:href="#E"/><use transform="matrix(0.06172839506172839,0,0,0.06172839506172839,113.27160493827161,0)" xlink:href="#J"/><use transform="matrix(0.06172839506172839,0,0,0.06172839506172839,119.44444444444444,0)" xlink:href="#D"/><use transform="matrix(0.06172839506172839,0,0,0.06172839506172839,132.96296296296296,0)" xlink:href="#K"/></g><path fill="#333" d="M115-3C79 11 28 4 28-45v-112H4v-33h27l15-45h31v45h36v33H77v99c-1 23 16 31 38 25v30" id="L"/><path fill="#333" d="M133-34C117-15 103 5 69 4 32 3 11-16 11-54c-1-60 55-63 116-61 1-26-3-47-28-47-18 1-26 9-28 27l-52-2c7-38 36-58 82-57s74 22 75 68l1 82c-1 14 12 18 25 15v27c-30 8-71 5-69-32zm-48 3c29 0 43-24 42-57-32 0-66-3-65 30 0 17 8 27 23 27" id="M"/><path fill="#333" d="M147 0L96-86 75-71V0H25v-261h50v150l67-79h53l-66 74L201 0h-54" id="N"/><path fill="#333" d="M135-194c52 0 70 43 70 98 0 56-19 99-73 100-30 1-46-15-58-35L72 0H24l1-261h50v104c11-23 29-37 60-37zM114-30c31 0 40-27 40-66 0-37-7-63-39-63s-41 28-41 65c0 36 8 64 40 64" id="O"/><path fill="#333" d="M110-194c64 0 96 36 96 99 0 64-35 99-97 99-61 0-95-36-95-99 0-62 34-99 96-99zm-1 164c35 0 45-28 45-65 0-40-10-65-43-65-34 0-45 26-45 65 0 36 10 65 43 65" id="P"/><path fill="#333" d="M88-194c31-1 46 15 58 34l-1-101h50l1 261h-48c-2-10 0-23-3-31C134-8 116 4 84 4 32 4 16-41 15-95c0-56 19-97 73-99zm17 164c33 0 40-30 41-66 1-37-9-64-41-64s-38 30-39 65c0 43 13 65 39 65" id="Q"/><path fill="#333" d="M135-194c53 0 70 44 70 98 0 56-19 98-73 100-31 1-45-17-59-34 3 33 2 69 2 105H25l-1-265h48c2 10 0 23 3 31 11-24 29-35 60-35zM114-30c33 0 39-31 40-66 0-38-9-64-40-64-56 0-55 130 0 130" id="R"/><g id="c"><use transform="matrix(0.06172839506172839,0,0,0.06172839506172839,0,0)" xlink:href="#L"/><use transform="matrix(0.06172839506172839,0,0,0.06172839506172839,7.345679012345679,0)" xlink:href="#M"/><use transform="matrix(0.06172839506172839,0,0,0.06172839506172839,19.691358024691358,0)" xlink:href="#H"/><use transform="matrix(0.06172839506172839,0,0,0.06172839506172839,32.03703703703704,0)" xlink:href="#N"/><use transform="matrix(0.06172839506172839,0,0,0.06172839506172839,44.382716049382715,0)" xlink:href="#O"/><use transform="matrix(0.06172839506172839,0,0,0.06172839506172839,57.901234567901234,0)" xlink:href="#P"/><use transform="matrix(0.06172839506172839,0,0,0.06172839506172839,71.41975308641975,0)" xlink:href="#M"/><use transform="matrix(0.06172839506172839,0,0,0.06172839506172839,83.76543209876543,0)" xlink:href="#F"/><use transform="matrix(0.06172839506172839,0,0,0.06172839506172839,92.4074074074074,0)" xlink:href="#Q"/><use transform="matrix(0.06172839506172839,0,0,0.06172839506172839,105.92592592592592,0)" xlink:href="#I"/><use transform="matrix(0.06172839506172839,0,0,0.06172839506172839,113.27160493827161,0)" xlink:href="#M"/><use transform="matrix(0.06172839506172839,0,0,0.06172839506172839,125.61728395061729,0)" xlink:href="#R"/><use transform="matrix(0.06172839506172839,0,0,0.06172839506172839,139.1358024691358,0)" xlink:href="#R"/></g><path fill="#333" d="M87 75C49 33 22-17 22-94c0-76 28-126 65-167h31c-38 41-64 92-64 168S80 34 118 75H87" id="S"/><path fill="#333" d="M177-190C167-65 218 103 67 71c-23-6-38-20-44-43l32-5c15 47 100 32 89-28v-30C133-14 115 1 83 1 29 1 15-40 15-95c0-56 16-97 71-98 29-1 48 16 59 35 1-10 0-23 2-32h30zM94-22c36 0 50-32 50-73 0-42-14-75-50-75-39 0-46 34-46 75s6 73 46 73" id="T"/><path fill="#333" d="M24-231v-30h32v30H24zM24 0v-190h32V0H24" id="U"/><path fill="#333" d="M141 0L90-78 38 0H4l68-98-65-92h35l48 74 47-74h35l-64 92 68 98h-35" id="V"/><g id="d"><use transform="matrix(0.06172839506172839,0,0,0.06172839506172839,0,0)" xlink:href="#S"/><use transform="matrix(0.06172839506172839,0,0,0.06172839506172839,7.345679012345679,0)" xlink:href="#z"/><use transform="matrix(0.06172839506172839,0,0,0.06172839506172839,19.691358024691358,0)" xlink:href="#T"/><use transform="matrix(0.06172839506172839,0,0,0.06172839506172839,32.03703703703704,0)" xlink:href="#U"/><use transform="matrix(0.06172839506172839,0,0,0.06172839506172839,36.91358024691358,0)" xlink:href="#z"/><use transform="matrix(0.06172839506172839,0,0,0.06172839506172839,49.25925925925926,0)" xlink:href="#V"/></g><path fill="#333" d="M108 0H70L1-190h34L89-25l56-165h34" id="W"/><g id="e"><use transform="matrix(0.06172839506172839,0,0,0.06172839506172839,0,0)" xlink:href="#B"/><use transform="matrix(0.06172839506172839,0,0,0.06172839506172839,11.11111111111111,0)" xlink:href="#x"/><use transform="matrix(0.06172839506172839,0,0,0.06172839506172839,23.45679012345679,0)" xlink:href="#y"/><use transform="matrix(0.06172839506172839,0,0,0.06172839506172839,30.80246913580247,0)" xlink:href="#W"/><use transform="matrix(0.06172839506172839,0,0,0.06172839506172839,41.91358024691358,0)" xlink:href="#x"/><use transform="matrix(0.06172839506172839,0,0,0.06172839506172839,54.25925925925926,0)" xlink:href="#y"/></g><g id="f"><use transform="matrix(0.06172839506172839,0,0,0.06172839506172839,0,0)" xlink:href="#B"/><use transform="matrix(0.06172839506172839,0,0,0.06172839506172839,11.11111111111111,0)" xlink:href="#x"/><use transform="matrix(0.06172839506172839,0,0,0.06172839506172839,23.45679012345679,0)" xlink:href="#y"/><use transform="matrix(0.06172839506172839,0,0,0.06172839506172839,30.80246913580247,0)" xlink:href="#W"/><use transform="matrix(0.06172839506172839,0,0,0.06172839506172839,41.91358024691358,0)" xlink:href="#U"/><use transform="matrix(0.06172839506172839,0,0,0.06172839506172839,46.79012345679013,0)" xlink:href="#z"/><use transform="matrix(0.06172839506172839,0,0,0.06172839506172839,59.135802469135804,0)" xlink:href="#T"/></g><path fill="#333" d="M106-169C34-169 62-67 57 0H25v-261h32l-1 103c12-21 28-36 61-36 89 0 53 116 60 194h-32v-121c2-32-8-49-39-48" id="X"/><path fill="#333" d="M210-169c-67 3-38 105-44 169h-31v-121c0-29-5-50-35-48C34-165 62-65 56 0H25l-1-190h30c1 10-1 24 2 32 10-44 99-50 107 0 11-21 27-35 58-36 85-2 47 119 55 194h-31v-121c0-29-5-49-35-48" id="Y"/><path fill="#333" d="M24 0v-261h32V0H24" id="Z"/><path fill="#333" d="M0 4l72-265h28L28 4H0" id="aa"/><path fill="#333" d="M96-169c-40 0-48 33-48 73s9 75 48 75c24 0 41-14 43-38l32 2c-6 37-31 61-74 61-59 0-76-41-82-99-10-93 101-131 147-64 4 7 5 14 7 22l-32 3c-4-21-16-35-41-35" id="ab"/><path fill="#333" d="M24-231v-30h32v30H24zM-9 49c24 4 33-6 33-30v-209h32V24c2 40-23 58-65 49V49" id="ac"/><path fill="#333" d="M206 0h-36l-40-164L89 0H53L-1-190h32L70-26l43-164h34l41 164 42-164h31" id="ad"/><path fill="#333" d="M141-36C126-15 110 5 73 4 37 3 15-17 15-53c-1-64 63-63 125-63 3-35-9-54-41-54-24 1-41 7-42 31l-33-3c5-37 33-52 76-52 45 0 72 20 72 64v82c-1 20 7 32 28 27v20c-31 9-61-2-59-35zM48-53c0 20 12 33 32 33 41-3 63-29 60-74-43 2-92-5-92 41" id="ae"/><path fill="#333" d="M33-261c38 41 65 92 65 168S71 34 33 75H2C39 34 66-17 66-93S39-220 2-261h31" id="af"/><g id="g"><use transform="matrix(0.06172839506172839,0,0,0.06172839506172839,0,0)" xlink:href="#X"/><use transform="matrix(0.06172839506172839,0,0,0.06172839506172839,12.345679012345679,0)" xlink:href="#A"/><use transform="matrix(0.06172839506172839,0,0,0.06172839506172839,18.51851851851852,0)" xlink:href="#Y"/><use transform="matrix(0.06172839506172839,0,0,0.06172839506172839,36.9753086419753,0)" xlink:href="#Z"/><use transform="matrix(0.06172839506172839,0,0,0.06172839506172839,41.85185185185185,0)" xlink:href="#aa"/><use transform="matrix(0.06172839506172839,0,0,0.06172839506172839,48.02469135802469,0)" xlink:href="#ab"/><use transform="matrix(0.06172839506172839,0,0,0.06172839506172839,59.1358024691358,0)" xlink:href="#B"/><use transform="matrix(0.06172839506172839,0,0,0.06172839506172839,70.24691358024691,0)" xlink:href="#B"/><use transform="matrix(0.06172839506172839,0,0,0.06172839506172839,81.35802469135803,0)" xlink:href="#aa"/><use transform="matrix(0.06172839506172839,0,0,0.06172839506172839,87.53086419753086,0)" xlink:href="#ac"/><use transform="matrix(0.06172839506172839,0,0,0.06172839506172839,92.4074074074074,0)" xlink:href="#B"/><use transform="matrix(0.06172839506172839,0,0,0.06172839506172839,103.51851851851852,0)" xlink:href="#aa"/><use transform="matrix(0.06172839506172839,0,0,0.06172839506172839,109.69135802469135,0)" xlink:href="#ad"/><use transform="matrix(0.06172839506172839,0,0,0.06172839506172839,125.67901234567901,0)" xlink:href="#ae"/><use transform="matrix(0.06172839506172839,0,0,0.06172839506172839,138.02469135802468,0)" xlink:href="#B"/><use transform="matrix(0.06172839506172839,0,0,0.06172839506172839,149.1358024691358,0)" xlink:href="#Y"/><use transform="matrix(0.06172839506172839,0,0,0.06172839506172839,167.59259259259258,0)" xlink:href="#af"/></g><path fill="#333" d="M25-224v-37h50v37H25zM75 22c2 45-34 59-81 51V38c22 5 31-5 31-27v-201h50V22" id="ag"/><path fill="#333" d="M190-63c-7 42-38 67-86 67-59 0-84-38-90-98-12-110 154-137 174-36l-49 2c-2-19-15-32-35-32-30 0-35 28-38 64-6 74 65 87 74 30" id="ah"/><path fill="#333" d="M128 0H69L1-190h53L99-40l48-150h52" id="ai"/><g id="h"><use transform="matrix(0.06172839506172839,0,0,0.06172839506172839,0,0)" xlink:href="#R"/><use transform="matrix(0.06172839506172839,0,0,0.06172839506172839,13.518518518518517,0)" xlink:href="#F"/><use transform="matrix(0.06172839506172839,0,0,0.06172839506172839,22.160493827160494,0)" xlink:href="#P"/><use transform="matrix(0.06172839506172839,0,0,0.06172839506172839,35.67901234567901,0)" xlink:href="#ag"/><use transform="matrix(0.06172839506172839,0,0,0.06172839506172839,41.851851851851855,0)" xlink:href="#G"/><use transform="matrix(0.06172839506172839,0,0,0.06172839506172839,54.19753086419753,0)" xlink:href="#ah"/><use transform="matrix(0.06172839506172839,0,0,0.06172839506172839,66.54320987654322,0)" xlink:href="#L"/><use transform="matrix(0.06172839506172839,0,0,0.06172839506172839,73.8888888888889,0)" xlink:href="#I"/><use transform="matrix(0.06172839506172839,0,0,0.06172839506172839,81.23456790123458,0)" xlink:href="#H"/><use transform="matrix(0.06172839506172839,0,0,0.06172839506172839,93.58024691358027,0)" xlink:href="#ai"/><use transform="matrix(0.06172839506172839,0,0,0.06172839506172839,105.92592592592595,0)" xlink:href="#ah"/></g><path fill="#333" d="M100-194c62-1 85 37 85 99 1 63-27 99-86 99S16-35 15-95c0-66 28-99 85-99zM99-20c44 1 53-31 53-75 0-43-8-75-51-75s-53 32-53 75 10 74 51 75" id="aj"/><g id="i"><use transform="matrix(0.06172839506172839,0,0,0.06172839506172839,0,0)" xlink:href="#Y"/><use transform="matrix(0.06172839506172839,0,0,0.06172839506172839,18.456790123456788,0)" xlink:href="#U"/><use transform="matrix(0.06172839506172839,0,0,0.06172839506172839,23.33333333333333,0)" xlink:href="#ab"/><use transform="matrix(0.06172839506172839,0,0,0.06172839506172839,34.44444444444444,0)" xlink:href="#y"/><use transform="matrix(0.06172839506172839,0,0,0.06172839506172839,41.79012345679012,0)" xlink:href="#aj"/><use transform="matrix(0.06172839506172839,0,0,0.06172839506172839,54.1358024691358,0)" xlink:href="#B"/><use transform="matrix(0.06172839506172839,0,0,0.06172839506172839,65.24691358024691,0)" xlink:href="#x"/><use transform="matrix(0.06172839506172839,0,0,0.06172839506172839,77.5925925925926,0)" xlink:href="#y"/><use transform="matrix(0.06172839506172839,0,0,0.06172839506172839,84.93827160493828,0)" xlink:href="#W"/><use transform="matrix(0.06172839506172839,0,0,0.06172839506172839,96.0493827160494,0)" xlink:href="#U"/><use transform="matrix(0.06172839506172839,0,0,0.06172839506172839,100.92592592592594,0)" xlink:href="#ab"/><use transform="matrix(0.06172839506172839,0,0,0.06172839506172839,112.03703703703705,0)" xlink:href="#x"/></g><path fill="#333" d="M101-234c-31-9-42 10-38 44h38v23H63V0H32v-167H5v-23h27c-7-52 17-82 69-68v24" id="ak"/><g id="j"><use transform="matrix(0.06172839506172839,0,0,0.06172839506172839,0,0)" xlink:href="#ak"/><use transform="matrix(0.06172839506172839,0,0,0.06172839506172839,6.172839506172839,0)" xlink:href="#aj"/><use transform="matrix(0.06172839506172839,0,0,0.06172839506172839,18.51851851851852,0)" xlink:href="#y"/></g><path fill="#333" d="M143 0L79-87 56-68V0H24v-261h32v163l83-92h37l-77 82L181 0h-38" id="al"/><g id="k"><use transform="matrix(0.06172839506172839,0,0,0.06172839506172839,0,0)" xlink:href="#ad"/><use transform="matrix(0.06172839506172839,0,0,0.06172839506172839,15.987654320987653,0)" xlink:href="#aj"/><use transform="matrix(0.06172839506172839,0,0,0.06172839506172839,28.333333333333332,0)" xlink:href="#y"/><use transform="matrix(0.06172839506172839,0,0,0.06172839506172839,35.67901234567901,0)" xlink:href="#al"/><use transform="matrix(0.06172839506172839,0,0,0.06172839506172839,46.79012345679013,0)" xlink:href="#U"/><use transform="matrix(0.06172839506172839,0,0,0.06172839506172839,51.66666666666667,0)" xlink:href="#z"/><use transform="matrix(0.06172839506172839,0,0,0.06172839506172839,64.01234567901236,0)" xlink:href="#T"/></g><g id="l"><use transform="matrix(0.06172839506172839,0,0,0.06172839506172839,0,0)" xlink:href="#ad"/><use transform="matrix(0.06172839506172839,0,0,0.06172839506172839,15.987654320987653,0)" xlink:href="#U"/><use transform="matrix(0.06172839506172839,0,0,0.06172839506172839,20.864197530864196,0)" xlink:href="#A"/><use transform="matrix(0.06172839506172839,0,0,0.06172839506172839,27.037037037037035,0)" xlink:href="#X"/></g><path fill="#333" d="M115-194c55 1 70 41 70 98S169 2 115 4C84 4 66-9 55-30l1 105H24l-1-265h31l2 30c10-21 28-34 59-34zm-8 174c40 0 45-34 45-75s-6-73-45-74c-42 0-51 32-51 76 0 43 10 73 51 73" id="am"/><g id="m"><use transform="matrix(0.06172839506172839,0,0,0.06172839506172839,0,0)" xlink:href="#am"/><use transform="matrix(0.06172839506172839,0,0,0.06172839506172839,12.345679012345679,0)" xlink:href="#y"/><use transform="matrix(0.06172839506172839,0,0,0.06172839506172839,19.691358024691358,0)" xlink:href="#aj"/><use transform="matrix(0.06172839506172839,0,0,0.06172839506172839,32.03703703703704,0)" xlink:href="#ac"/><use transform="matrix(0.06172839506172839,0,0,0.06172839506172839,36.91358024691358,0)" xlink:href="#x"/><use transform="matrix(0.06172839506172839,0,0,0.06172839506172839,49.25925925925926,0)" xlink:href="#ab"/><use transform="matrix(0.06172839506172839,0,0,0.06172839506172839,60.37037037037037,0)" xlink:href="#A"/><use transform="matrix(0.06172839506172839,0,0,0.06172839506172839,66.5432098765432,0)" xlink:href="#B"/></g><g id="n"><use transform="matrix(0.06172839506172839,0,0,0.06172839506172839,0,0)" xlink:href="#L"/><use transform="matrix(0.06172839506172839,0,0,0.06172839506172839,7.345679012345679,0)" xlink:href="#M"/><use transform="matrix(0.06172839506172839,0,0,0.06172839506172839,19.691358024691358,0)" xlink:href="#H"/><use transform="matrix(0.06172839506172839,0,0,0.06172839506172839,32.03703703703704,0)" xlink:href="#N"/><use transform="matrix(0.06172839506172839,0,0,0.06172839506172839,44.382716049382715,0)" xlink:href="#I"/><use transform="matrix(0.06172839506172839,0,0,0.06172839506172839,51.72839506172839,0)" xlink:href="#H"/><use transform="matrix(0.06172839506172839,0,0,0.06172839506172839,64.07407407407408,0)" xlink:href="#ai"/><use transform="matrix(0.06172839506172839,0,0,0.06172839506172839,76.41975308641976,0)" xlink:href="#ah"/></g><g id="o"><use transform="matrix(0.06172839506172839,0,0,0.06172839506172839,0,0)" xlink:href="#A"/><use transform="matrix(0.06172839506172839,0,0,0.06172839506172839,6.172839506172839,0)" xlink:href="#ae"/><use transform="matrix(0.06172839506172839,0,0,0.06172839506172839,18.51851851851852,0)" xlink:href="#B"/><use transform="matrix(0.06172839506172839,0,0,0.06172839506172839,29.62962962962963,0)" xlink:href="#al"/><use transform="matrix(0.06172839506172839,0,0,0.06172839506172839,40.74074074074074,0)" xlink:href="#B"/></g><path fill="#333" d="M24 0v-248h195v40H76v63h132v40H76v65h150V0H24" id="an"/><path fill="#333" d="M25 0v-261h50V0H25" id="ao"/><path fill="#333" d="M114-157C55-157 80-60 75 0H25v-261h50l-1 109c12-26 28-41 61-42 86-1 58 113 63 194h-50c-7-57 23-157-34-157" id="ap"/><g id="p"><use transform="matrix(0.06172839506172839,0,0,0.06172839506172839,0,0)" xlink:href="#an"/><use transform="matrix(0.06172839506172839,0,0,0.06172839506172839,14.814814814814813,0)" xlink:href="#ao"/><use transform="matrix(0.06172839506172839,0,0,0.06172839506172839,20.98765432098765,0)" xlink:href="#M"/><use transform="matrix(0.06172839506172839,0,0,0.06172839506172839,33.33333333333333,0)" xlink:href="#H"/><use transform="matrix(0.06172839506172839,0,0,0.06172839506172839,45.679012345679006,0)" xlink:href="#L"/><use transform="matrix(0.06172839506172839,0,0,0.06172839506172839,53.02469135802468,0)" xlink:href="#J"/><use transform="matrix(0.06172839506172839,0,0,0.06172839506172839,59.197530864197525,0)" xlink:href="#ah"/><use transform="matrix(0.06172839506172839,0,0,0.06172839506172839,71.5432098765432,0)" xlink:href="#H"/><use transform="matrix(0.06172839506172839,0,0,0.06172839506172839,83.88888888888889,0)" xlink:href="#G"/><use transform="matrix(0.06172839506172839,0,0,0.06172839506172839,96.23456790123457,0)" xlink:href="#M"/><use transform="matrix(0.06172839506172839,0,0,0.06172839506172839,108.58024691358025,0)" xlink:href="#F"/><use transform="matrix(0.06172839506172839,0,0,0.06172839506172839,117.22222222222223,0)" xlink:href="#ah"/><use transform="matrix(0.06172839506172839,0,0,0.06172839506172839,129.5679012345679,0)" xlink:href="#ap"/></g><path fill="#333" d="M121-226c-27-7-43 5-38 36h38v33H83V0H34v-157H6v-33h28c-9-59 32-81 87-68v32" id="aq"/><g id="q"><use transform="matrix(0.06172839506172839,0,0,0.06172839506172839,0,0)" xlink:href="#E"/><use transform="matrix(0.06172839506172839,0,0,0.06172839506172839,13.518518518518517,0)" xlink:href="#F"/><use transform="matrix(0.06172839506172839,0,0,0.06172839506172839,22.160493827160494,0)" xlink:href="#M"/><use transform="matrix(0.06172839506172839,0,0,0.06172839506172839,34.50617283950617,0)" xlink:href="#aq"/><use transform="matrix(0.06172839506172839,0,0,0.06172839506172839,41.85185185185185,0)" xlink:href="#M"/><use transform="matrix(0.06172839506172839,0,0,0.06172839506172839,54.197530864197525,0)" xlink:href="#D"/><use transform="matrix(0.06172839506172839,0,0,0.06172839506172839,67.71604938271604,0)" xlink:href="#M"/></g><path fill="#333" d="M4 7l51-268h42L46 7H4" id="ar"/><use transform="matrix(0.06172839506172839,0,0,0.06172839506172839,0,0)" xlink:href="#ar" id="r"/><path fill="#333" d="M220-157c-53 9-28 100-34 157h-49v-107c1-27-5-49-29-50C55-147 81-57 75 0H25l-1-190h47c2 12-1 28 3 38 10-53 101-56 108 0 13-22 24-43 59-42 82 1 51 116 57 194h-49v-107c-1-25-5-48-29-50" id="as"/><path fill="#333" d="M85 4C-2 5 27-109 22-190h50c7 57-23 150 33 157 60-5 35-97 40-157h50l1 190h-47c-2-12 1-28-3-38-12 25-28 42-61 42" id="at"/><g id="s"><use transform="matrix(0.06172839506172839,0,0,0.06172839506172839,0,0)" xlink:href="#R"/><use transform="matrix(0.06172839506172839,0,0,0.06172839506172839,13.518518518518517,0)" xlink:href="#F"/><use transform="matrix(0.06172839506172839,0,0,0.06172839506172839,22.160493827160494,0)" xlink:href="#P"/><use transform="matrix(0.06172839506172839,0,0,0.06172839506172839,35.67901234567901,0)" xlink:href="#as"/><use transform="matrix(0.06172839506172839,0,0,0.06172839506172839,55.4320987654321,0)" xlink:href="#G"/><use transform="matrix(0.06172839506172839,0,0,0.06172839506172839,67.77777777777779,0)" xlink:href="#L"/><use transform="matrix(0.06172839506172839,0,0,0.06172839506172839,75.12345679012347,0)" xlink:href="#ap"/><use transform="matrix(0.06172839506172839,0,0,0.06172839506172839,88.64197530864199,0)" xlink:href="#G"/><use transform="matrix(0.06172839506172839,0,0,0.06172839506172839,100.98765432098767,0)" xlink:href="#at"/><use transform="matrix(0.06172839506172839,0,0,0.06172839506172839,114.50617283950619,0)" xlink:href="#H"/></g><g id="t"><use transform="matrix(0.06172839506172839,0,0,0.06172839506172839,0,0)" xlink:href="#Y"/><use transform="matrix(0.06172839506172839,0,0,0.06172839506172839,18.456790123456788,0)" xlink:href="#x"/><use transform="matrix(0.06172839506172839,0,0,0.06172839506172839,30.80246913580247,0)" xlink:href="#A"/><use transform="matrix(0.06172839506172839,0,0,0.06172839506172839,36.97530864197531,0)" xlink:href="#y"/><use transform="matrix(0.06172839506172839,0,0,0.06172839506172839,44.32098765432099,0)" xlink:href="#U"/><use transform="matrix(0.06172839506172839,0,0,0.06172839506172839,49.19753086419753,0)" xlink:href="#ab"/><use transform="matrix(0.06172839506172839,0,0,0.06172839506172839,60.308641975308646,0)" xlink:href="#B"/></g></defs></g></svg>